<svg width="86" height="46" viewBox="0 0 86 46" fill="none" xmlns="http://www.w3.org/2000/svg">
<path d="M8.50065 30.6667L10.4173 30.935L27.9357 13.4167C27.5842 12.1294 27.5837 10.7716 27.9342 9.48409C28.2847 8.1966 28.9735 7.0264 29.929 6.095C32.919 3.06667 37.749 3.06667 40.739 6.095C42.7707 8.08833 43.4223 10.925 42.7323 13.4167L52.584 23.2683L54.5007 23C55.1907 23 55.8423 23 56.4173 23.2683L70.1023 9.58333C69.834 9.00833 69.834 8.35667 69.834 7.66667C69.834 5.63334 70.6417 3.68329 72.0795 2.24551C73.5173 0.807735 75.4673 0 77.5007 0C79.534 0 81.484 0.807735 82.9218 2.24551C84.3596 3.68329 85.1673 5.63334 85.1673 7.66667C85.1673 9.69999 84.3596 11.65 82.9218 13.0878C81.484 14.5256 79.534 15.3333 77.5007 15.3333C76.8107 15.3333 76.159 15.3333 75.584 15.065L61.899 28.75C62.1673 29.325 62.1673 29.9767 62.1673 30.6667C62.1673 32.7 61.3596 34.65 59.9218 36.0878C58.484 37.5256 56.534 38.3333 54.5007 38.3333C52.4673 38.3333 50.5173 37.5256 49.0795 36.0878C47.6417 34.65 46.834 32.7 46.834 30.6667L47.1023 28.75L37.2507 18.8983C36.024 19.1667 34.644 19.1667 33.4173 18.8983L15.899 36.4167L16.1673 38.3333C16.1673 40.3667 15.3596 42.3167 13.9218 43.7545C12.484 45.1923 10.534 46 8.50065 46C6.46732 46 4.51728 45.1923 3.0795 43.7545C1.64172 42.3167 0.833984 40.3667 0.833984 38.3333C0.833984 36.3 1.64172 34.35 3.0795 32.9122C4.51728 31.4744 6.46732 30.6667 8.50065 30.6667Z" fill="#012140"/>
</svg>
