<svg width="90" height="90" viewBox="0 0 90 90" fill="none" xmlns="http://www.w3.org/2000/svg">
<path d="M45 81.5625C24.8396 81.5625 8.4375 65.1604 8.4375 45C8.4375 24.8396 24.8396 8.4375 45 8.4375C65.1604 8.4375 81.5625 24.8396 81.5625 45C81.5625 65.1604 65.1604 81.5625 45 81.5625ZM45 14.0625C27.9492 14.0625 14.0625 27.9492 14.0625 45C14.0625 62.0508 27.9492 75.9375 45 75.9375C62.0508 75.9375 75.9375 62.0596 75.9375 45C75.9375 27.9404 62.0596 14.0625 45 14.0625Z" fill="black"/>
<path d="M56.8952 51.3281C53.8366 51.3281 50.8817 49.9711 48.5737 47.5084C46.2908 45.0322 44.9259 41.8481 44.7065 38.4873C44.4481 34.8486 45.5643 31.5 47.8495 29.0619C50.1346 26.6238 53.3286 25.3125 56.8952 25.3125C60.4354 25.3125 63.6399 26.652 65.9181 29.0848C68.1962 31.5176 69.3405 34.8855 69.0821 38.4908C68.8586 41.8496 67.4942 45.0312 65.2149 47.5084C62.9052 49.9711 59.952 51.3281 56.8952 51.3281Z" fill="black"/>
<path d="M28.7973 51.9187C23.5661 51.9187 18.9659 47.083 18.544 41.1381C18.3278 38.0936 19.2735 35.2793 21.2106 33.2139C23.1477 31.1484 25.8196 30.0498 28.7955 30.0498C31.7715 30.0498 34.4416 31.1818 36.3664 33.2385C38.2913 35.2951 39.2668 38.1287 39.0471 41.1486C38.6182 47.0848 34.0198 51.9187 28.7973 51.9187Z" fill="black"/>
<path d="M73.8926 62.4515C73.6132 61.6253 72.9329 60.7447 71.5688 59.9097C67.445 57.3908 62.3719 56.0583 56.8946 56.0583C51.521 56.0583 46.3073 57.447 42.2116 59.9695C37.5973 62.8119 34.4965 66.9568 33.2467 71.9542C32.9514 73.1302 32.5208 75.3187 32.9813 76.5439C40.372 79.3544 48.5144 79.4833 55.9904 76.9083C63.4664 74.3332 69.8022 69.2173 73.8944 62.4515H73.8926Z" fill="black"/>
<path d="M28.7631 70.5532C30.0059 65.5944 32.6514 61.4601 36.7559 58.1167C36.9499 57.9566 37.0974 57.7474 37.1831 57.5109C37.2688 57.2744 37.2895 57.0192 37.243 56.772C37.1965 56.5248 37.0845 56.2946 36.9188 56.1054C36.753 55.9161 36.5395 55.7748 36.3006 55.6962C34.1912 55.023 31.783 54.6626 28.7965 54.6626C24.6094 54.6626 20.1639 55.7964 16.8187 57.8565C15.8695 58.4419 14.9379 58.6669 14.2207 58.8673C17.1001 65.2313 21.8753 70.5503 27.893 74.097L28.2076 74.0724C28.2764 72.8839 28.4625 71.7051 28.7631 70.5532Z" fill="black"/>
</svg>
