<svg width="70" height="70" viewBox="0 0 70 70" fill="none" xmlns="http://www.w3.org/2000/svg">
<path d="M35 31.5C39.6413 31.5 44.0925 33.3437 47.3744 36.6256C50.6563 39.9075 52.5 44.3587 52.5 49V70H17.5V49C17.5 44.3587 19.3437 39.9075 22.6256 36.6256C25.9075 33.3437 30.3587 31.5 35 31.5ZM11.508 42.021C10.951 43.8997 10.622 45.8387 10.528 47.796L10.5 49V70H3.19609e-07V54.25C-0.000688825 51.2315 1.1131 48.319 3.12772 46.0712C5.14234 43.8234 7.91594 42.3986 10.9165 42.07L11.5115 42.021H11.508ZM58.492 42.021C61.6067 42.2108 64.5316 43.5818 66.6701 45.8543C68.8086 48.1268 69.9995 51.1295 70 54.25V70H59.5V49C59.5 46.5745 59.15 44.233 58.492 42.021ZM12.25 21C14.5706 21 16.7962 21.9219 18.4372 23.5628C20.0781 25.2038 21 27.4294 21 29.75C21 32.0706 20.0781 34.2962 18.4372 35.9372C16.7962 37.5781 14.5706 38.5 12.25 38.5C9.92936 38.5 7.70376 37.5781 6.06282 35.9372C4.42187 34.2962 3.5 32.0706 3.5 29.75C3.5 27.4294 4.42187 25.2038 6.06282 23.5628C7.70376 21.9219 9.92936 21 12.25 21ZM57.75 21C60.0706 21 62.2962 21.9219 63.9372 23.5628C65.5781 25.2038 66.5 27.4294 66.5 29.75C66.5 32.0706 65.5781 34.2962 63.9372 35.9372C62.2962 37.5781 60.0706 38.5 57.75 38.5C55.4294 38.5 53.2038 37.5781 51.5628 35.9372C49.9219 34.2962 49 32.0706 49 29.75C49 27.4294 49.9219 25.2038 51.5628 23.5628C53.2038 21.9219 55.4294 21 57.75 21ZM35 0C38.713 0 42.274 1.475 44.8995 4.10051C47.525 6.72601 49 10.287 49 14C49 17.713 47.525 21.274 44.8995 23.8995C42.274 26.525 38.713 28 35 28C31.287 28 27.726 26.525 25.1005 23.8995C22.475 21.274 21 17.713 21 14C21 10.287 22.475 6.72601 25.1005 4.10051C27.726 1.475 31.287 0 35 0Z" fill="#012140"/>
</svg>
